<?xml version="1.0" standalone="no"?>
<!DOCTYPE svg PUBLIC "-//W3C//DTD SVG 20010904//EN"
 "http://www.w3.org/TR/2001/REC-SVG-20010904/DTD/svg10.dtd">
<svg version="1.0" xmlns="http://www.w3.org/2000/svg"
 width="519.000000pt" height="410.000000pt" viewBox="0 0 519.000000 410.000000"
 preserveAspectRatio="xMidYMid meet">

<g transform="translate(0.000000,410.000000) scale(0.100000,-0.100000)"
fill="#000000" stroke="none">
<path d="M1535 600 c-20 -22 -14 -40 8 -22 10 9 16 9 25 0 6 -6 15 -8 19 -5 4
4 -2 17 -13 28 l-20 20 -19 -21z"/>
<path d="M1825 599 c-4 -11 -4 -23 0 -27 7 -7 25 17 25 36 0 20 -18 14 -25 -9z"/>
<path d="M1076 601 c-10 -15 50 -166 65 -166 15 0 73 151 63 166 -12 20 -24 6
-40 -51 -9 -33 -20 -58 -23 -55 -3 4 -13 29 -21 57 -15 50 -32 69 -44 49z"/>
<path d="M1710 590 c0 -13 5 -20 13 -17 6 2 12 10 12 17 0 7 -6 15 -12 18 -8
2 -13 -5 -13 -18z"/>
<path d="M2126 603 c-11 -12 -6 -149 6 -161 17 -17 38 -15 38 3 0 8 -4 15 -10
15 -6 0 -10 30 -10 69 0 65 -8 90 -24 74z"/>
<path d="M3111 591 c-14 -11 -21 -23 -17 -30 6 -9 11 -9 21 -1 12 10 15 0 17
-56 2 -44 7 -69 16 -72 10 -3 12 16 10 84 -2 48 -7 89 -13 90 -5 2 -21 -5 -34
-15z"/>
<path d="M3237 603 c-11 -11 -8 -91 4 -99 6 -3 16 -1 22 5 15 15 34 14 41 -4
13 -35 -24 -61 -51 -34 -8 8 -13 7 -18 -2 -9 -14 20 -39 47 -39 26 0 58 36 58
64 0 33 -28 59 -57 53 -17 -3 -23 0 -23 14 0 15 8 19 35 19 24 0 35 5 35 15 0
11 -11 15 -43 15 -24 0 -47 -3 -50 -7z"/>
<path d="M3424 598 c-24 -37 -54 -113 -50 -125 3 -7 19 -13 36 -13 18 0 33 -6
36 -15 4 -8 10 -15 15 -15 5 0 9 7 9 15 0 8 5 15 10 15 6 0 10 7 10 15 0 8 -4
15 -10 15 -5 0 -10 9 -10 20 0 11 -5 20 -11 20 -6 0 -13 -9 -16 -20 -3 -11
-12 -20 -19 -20 -18 0 -18 -1 6 56 13 29 17 51 11 57 -5 5 -12 4 -17 -5z"/>
<path d="M3667 604 c-4 -4 -7 -18 -7 -31 0 -20 -4 -22 -24 -17 -31 8 -56 -19
-56 -61 0 -46 21 -65 68 -61 l37 4 3 77 c3 73 -5 105 -21 89z m-12 -109 c0
-23 -4 -30 -20 -30 -21 0 -31 25 -21 51 11 28 41 12 41 -21z"/>
<path d="M3734 599 c-10 -17 13 -36 27 -22 12 12 4 33 -11 33 -5 0 -12 -5 -16
-11z"/>
<path d="M4087 603 c-4 -3 -7 -30 -7 -60 0 -40 4 -53 15 -53 12 0 15 13 15 60
0 55 -6 70 -23 53z"/>
<path d="M1255 546 c-42 -30 -16 -116 35 -116 32 0 52 25 52 65 0 57 -44 83
-87 51z m55 -51 c0 -28 -4 -35 -19 -35 -10 0 -22 7 -25 16 -10 26 3 54 25 54
15 0 19 -7 19 -35z"/>
<path d="M1390 540 c-48 -48 1 -128 64 -104 30 11 19 34 -13 28 -23 -5 -30 -2
-35 14 -11 34 4 55 35 48 21 -4 29 -2 29 8 0 30 -52 34 -80 6z"/>
<path d="M1517 542 c-35 -38 -10 -112 37 -112 25 0 58 19 51 30 -3 5 -19 7
-34 4 -16 -4 -32 -1 -35 5 -5 7 6 11 33 11 34 0 41 3 41 20 0 25 -34 60 -58
60 -11 0 -26 -8 -35 -18z m61 -29 c2 -8 -6 -13 -22 -13 -25 0 -33 10 -19 24
10 10 36 3 41 -11z"/>
<path d="M1710 494 c0 -48 -5 -73 -16 -86 -16 -16 -16 -18 0 -24 34 -13 47 14
44 94 -2 49 -7 77 -15 80 -10 3 -13 -14 -13 -64z"/>
<path d="M1793 553 c-26 -10 -13 -31 18 -29 18 0 34 -5 36 -11 3 -8 -4 -13
-19 -13 -13 0 -33 -6 -44 -14 -15 -12 -17 -18 -8 -33 8 -13 24 -18 58 -18 25
0 46 3 46 8 0 4 0 25 0 46 0 58 -37 85 -87 64z m52 -83 c-3 -5 -15 -10 -26
-10 -10 0 -19 5 -19 10 0 6 12 10 26 10 14 0 23 -4 19 -10z"/>
<path d="M1990 550 c-19 -12 -6 -24 27 -25 14 0 28 -6 30 -12 3 -8 -5 -13 -20
-13 -48 0 -71 -52 -29 -64 30 -9 87 -1 86 12 -1 7 -2 27 -2 46 -3 55 -49 83
-92 56z m60 -80 c0 -5 -9 -10 -20 -10 -11 0 -20 5 -20 10 0 6 9 10 20 10 11 0
20 -4 20 -10z"/>
<path d="M2210 540 c-48 -48 1 -128 64 -104 30 11 19 34 -13 28 -23 -5 -30 -2
-35 14 -11 34 4 55 35 48 21 -4 29 -2 29 8 0 30 -52 34 -80 6z"/>
<path d="M2343 553 c-27 -10 -13 -30 17 -25 23 3 30 0 30 -12 0 -10 -9 -16
-24 -16 -32 0 -53 -26 -39 -48 7 -12 25 -17 57 -18 l46 -1 -6 51 c-8 65 -35
88 -81 69z m47 -83 c0 -5 -9 -10 -20 -10 -11 0 -20 5 -20 10 0 6 9 10 20 10
11 0 20 -4 20 -10z"/>
<path d="M2465 542 c-8 -23 -5 -86 5 -102 9 -13 11 -13 20 0 5 8 10 32 10 53
0 31 3 38 18 35 12 -2 18 -16 22 -48 3 -25 10 -45 15 -45 14 0 18 94 5 110
-15 18 -88 15 -95 -3z"/>
<path d="M2628 550 c-29 -17 -33 -68 -8 -102 12 -16 19 -36 16 -43 -3 -8 -1
-17 4 -20 6 -4 14 5 19 18 5 13 17 27 25 30 9 4 16 13 16 21 0 12 -7 14 -29
10 -23 -5 -30 -2 -35 14 -11 34 4 55 35 48 21 -4 29 -2 29 8 0 24 -42 33 -72
16z"/>
<path d="M2750 540 c-11 -11 -20 -31 -20 -45 0 -30 32 -65 59 -65 30 0 51 28
51 65 0 60 -50 85 -90 45z m55 -45 c0 -33 -28 -47 -39 -19 -10 25 3 56 22 52
11 -2 17 -13 17 -33z"/>
<path d="M2877 553 c-13 -13 -7 -92 8 -107 9 -9 30 -14 53 -12 l37 2 0 59 c0
38 -4 60 -12 63 -9 2 -13 -10 -13 -42 0 -34 -5 -48 -16 -53 -21 -8 -34 14 -34
60 0 35 -8 46 -23 30z"/>
<path d="M3734 546 c-9 -25 1 -109 14 -114 9 -3 12 14 12 62 0 61 -13 87 -26
52z"/>
<path d="M3810 545 c-7 -8 -9 -15 -4 -16 5 -1 20 -2 33 -2 32 -3 40 -27 9 -27
-29 0 -48 -17 -48 -42 0 -19 3 -20 67 -23 l42 -1 -6 51 c-3 28 -12 56 -21 63
-21 16 -57 15 -72 -3z m60 -75 c0 -5 -9 -10 -20 -10 -11 0 -20 5 -20 10 0 6 9
10 20 10 11 0 20 -4 20 -10z"/>
<path d="M3950 545 c-19 -23 -7 -49 28 -60 43 -12 41 -29 -3 -22 -43 7 -55 -9
-20 -25 38 -17 80 0 80 32 0 20 -7 27 -32 35 -41 12 -43 30 -3 22 22 -5 30 -3
30 7 0 27 -60 35 -80 11z"/>
<path d="M4085 460 c-7 -12 2 -30 16 -30 5 0 9 9 9 20 0 21 -15 27 -25 10z"/>
</g>
</svg>
